{
  "accessors": [
    {
      "bufferView": 2,
      "componentType": 5126,
      "count": 12686,
      "max": [
        0.9519249796867371,
        0.1444839984178543,
        0.49063000082969666
      ],
      "min": [
        -0.9507660269737244,
        -0.48788100481033325,
        -0.5140029788017273
      ],
      "type": "VEC3"
    },
    {
      "bufferView": 2,
      "byteOffset": 152232,
      "componentType": 5126,
      "count": 12686,
      "max": [
        0.9866668581962585,
        1.0,
        0.9996218085289001
      ],
      "min": [
        -0.9880090355873108,
        -0.9999923706054688,
        -0.9997878670692444
      ],
      "type": "VEC3"
    },
    {
      "bufferView": 0,
      "componentType": 5125,
      "count": 76104,
      "type": "SCALAR"
    },
    {
      "bufferView": 2,
      "byteOffset": 304464,
      "componentType": 5126,
      "count": 2590,
      "max": [
        2.171834945678711,
        0.3293040096759796,
        1.1255379915237427
      ],
      "min": [
        -2.171834945678711,
        -1.112941026687622,
        -1.1708639860153198
      ],
      "type": "VEC3"
    },
    {
      "bufferView": 2,
      "byteOffset": 335544,
      "componentType": 5126,
      "count": 2590,
      "max": [
        0.9998461604118347,
        1.0,
        0.9999992847442627
      ],
      "min": [
        -0.9998461604118347,
        -0.9999427795410156,
        -0.9999979734420776
      ],
      "type": "VEC3"
    },
    {
      "bufferView": 1,
      "componentType": 5126,
      "count": 2590,
      "max": [
        0.75,
        0.875
      ],
      "min": [
        0.25,
        0.375
      ],
      "type": "VEC2"
    },
    {
      "bufferView": 0,
      "byteOffset": 304416,
      "componentType": 5125,
      "count": 14592,
      "type": "SCALAR"
    }
  ],
  "asset": {
    "extras": {
      "author": "hwangew (https://sketchfab.com/hwangew)",
      "license": "CC-BY-NC-4.0 (http://creativecommons.org/licenses/by-nc/4.0/)",
      "source": "https://sketchfab.com/3d-models/lips-548725842e104c43ba0404a583d1baa0",
      "title": "Lips"
    },
    "generator": "Sketchfab-13.74.0",
    "version": "2.0"
  },
  "bufferViews": [
    {
      "buffer": 0,
      "byteLength": 362784,
      "name": "floatBufferViews",
      "target": 34963
    },
    {
      "buffer": 0,
      "byteLength": 20720,
      "byteOffset": 362784,
      "byteStride": 8,
      "name": "floatBufferViews",
      "target": 34962
    },
    {
      "buffer": 0,
      "byteLength": 366624,
      "byteOffset": 383504,
      "byteStride": 12,
      "name": "floatBufferViews",
      "target": 34962
    }
  ],
  "buffers": [
    {
      "byteLength": 750128,
      "uri": "scene.bin"
    }
  ],
  "materials": [
    {
      "doubleSided": true,
      "name": "Material.005",
      "pbrMetallicRoughness": {
        "metallicFactor": 0.0,
        "roughnessFactor": 0.6
      }
    },
    {
      "doubleSided": true,
      "name": "None",
      "pbrMetallicRoughness": {
        "metallicFactor": 0.0,
        "roughnessFactor": 0.6
      }
    }
  ],
  "meshes": [
    {
      "name": "Object_0",
      "primitives": [
        {
          "attributes": {
            "NORMAL": 1,
            "POSITION": 0
          },
          "indices": 2,
          "material": 0,
          "mode": 4
        }
      ]
    },
    {
      "name": "Object_1",
      "primitives": [
        {
          "attributes": {
            "NORMAL": 4,
            "POSITION": 3,
            "TEXCOORD_0": 5
          },
          "indices": 6,
          "material": 1,
          "mode": 4
        }
      ]
    }
  ],
  "nodes": [
    {
      "children": [
        1
      ],
      "matrix": [
        1.0,
        0.0,
        0.0,
        0.0,
        0.0,
        2.220446049250313e-16,
        -1.0,
        0.0,
        0.0,
        1.0,
        2.220446049250313e-16,
        0.0,
        0.0,
        0.0,
        0.0,
        1.0
      ],
      "name": "Sketchfab_model"
    },
    {
      "children": [
        2,
        3
      ],
      "name": "LIPs.obj.cleaner.materialmerger.gles"
    },
    {
      "mesh": 0,
      "name": "Object_2"
    },
    {
      "mesh": 1,
      "name": "Object_3"
    }
  ],
  "scene": 0,
  "scenes": [
    {
      "name": "Sketchfab_Scene",
      "nodes": [
        0
      ]
    }
  ]
}
